{"header":{"keySignatures":[],"meta":[],"name":"","ppq":96,"tempos":[{"bpm":135.000135000135,"ticks":0}],"timeSignatures":[{"ticks":0,"timeSignature":[4,4],"measures":0}]},"tracks":[{"channel":0,"controlChanges":{},"pitchBends":[],"instrument":{"family":"piano","number":0,"name":"acoustic grand piano"},"name":"","notes":[],"endOfTrackTicks":0},{"channel":0,"controlChanges":{"6":[{"number":6,"ticks":0,"time":0,"value":0.09448818897637795}],"7":[{"number":7,"ticks":0,"time":0,"value":0.7874015748031497},{"number":7,"ticks":0,"time":0,"value":0.7874015748031497}],"10":[{"number":10,"ticks":0,"time":0,"value":0.5039370078740157},{"number":10,"ticks":0,"time":0,"value":0.5039370078740157}],"100":[{"number":100,"ticks":0,"time":0,"value":0}],"101":[{"number":101,"ticks":0,"time":0,"value":0}]},"pitchBends":[{"ticks":0,"time":0,"value":0},{"ticks":0,"time":0,"value":0}],"instrument":{"family":"piano","number":0,"name":"acoustic grand piano"},"name":"Lead","notes":[],"endOfTrackTicks":3457},{"channel":0,"controlChanges":{"6":[{"number":6,"ticks":0,"time":0,"value":0.09448818897637795},{"number":6,"ticks":3456,"time":15.999984,"value":0.09448818897637795},{"number":6,"ticks":3457,"time":16.004613624999998,"value":0.09448818897637795},{"number":6,"ticks":3457,"time":16.004613624999998,"value":0.09448818897637795}],"7":[{"number":7,"ticks":0,"time":0,"value":0.7874015748031497},{"number":7,"ticks":3456,"time":15.999984,"value":0.7874015748031497},{"number":7,"ticks":3457,"time":16.004613624999998,"value":0.7874015748031497},{"number":7,"ticks":3457,"time":16.004613624999998,"value":0.7874015748031497}],"10":[{"number":10,"ticks":0,"time":0,"value":0.5039370078740157},{"number":10,"ticks":3456,"time":15.999984,"value":0.5039370078740157},{"number":10,"ticks":3457,"time":16.004613624999998,"value":0.5039370078740157},{"number":10,"ticks":3457,"time":16.004613624999998,"value":0.5039370078740157}],"100":[{"number":100,"ticks":0,"time":0,"value":0},{"number":100,"ticks":3456,"time":15.999984,"value":0},{"number":100,"ticks":3457,"time":16.004613624999998,"value":0},{"number":100,"ticks":3457,"time":16.004613624999998,"value":0}],"101":[{"number":101,"ticks":0,"time":0,"value":0},{"number":101,"ticks":3456,"time":15.999984,"value":0},{"number":101,"ticks":3457,"time":16.004613624999998,"value":0},{"number":101,"ticks":3457,"time":16.004613624999998,"value":0}]},"pitchBends":[{"ticks":0,"time":0,"value":0},{"ticks":3456,"time":15.999984,"value":0},{"ticks":3457,"time":16.004613624999998,"value":0},{"ticks":3457,"time":16.004613624999998,"value":0}],"instrument":{"family":"brass","number":63,"name":"synthbrass 2"},"name":"","notes":[{"duration":0.222222,"durationTicks":48,"midi":67,"name":"G4","ticks":0,"time":0,"velocity":0.7874015748031497},{"duration":0.222222,"durationTicks":48,"midi":74,"name":"D5","ticks":48,"time":0.222222,"velocity":0.7874015748031497},{"duration":0.22222200000000003,"durationTicks":48,"midi":67,"name":"G4","ticks":144,"time":0.666666,"velocity":0.7874015748031497},{"duration":0.22222200000000003,"durationTicks":48,"midi":73,"name":"C#5","ticks":192,"time":0.888888,"velocity":0.7874015748031497},{"duration":0.22222199999999992,"durationTicks":48,"midi":74,"name":"D5","ticks":240,"time":1.11111,"velocity":0.7874015748031497},{"duration":0.22222200000000014,"durationTicks":48,"midi":73,"name":"C#5","ticks":288,"time":1.333332,"velocity":0.7874015748031497},{"duration":0.22222199999999992,"durationTicks":48,"midi":70,"name":"A#4","ticks":336,"time":1.555554,"velocity":0.7874015748031497},{"duration":0.22222199999999992,"durationTicks":48,"midi":67,"name":"G4","ticks":384,"time":1.777776,"velocity":0.7874015748031497},{"duration":0.22222200000000014,"durationTicks":48,"midi":74,"name":"D5","ticks":432,"time":1.999998,"velocity":0.7874015748031497},{"duration":0.22222199999999992,"durationTicks":48,"midi":67,"name":"G4","ticks":528,"time":2.444442,"velocity":0.7874015748031497},{"duration":0.22222199999999992,"durationTicks":48,"midi":73,"name":"C#5","ticks":576,"time":2.666664,"velocity":0.7874015748031497},{"duration":0.22222200000000036,"durationTicks":48,"midi":74,"name":"D5","ticks":624,"time":2.888886,"velocity":0.7874015748031497},{"duration":0.22222199999999992,"durationTicks":48,"midi":73,"name":"C#5","ticks":672,"time":3.111108,"velocity":0.7874015748031497},{"duration":0.22222199999999992,"durationTicks":48,"midi":70,"name":"A#4","ticks":720,"time":3.33333,"velocity":0.7874015748031497},{"duration":0.22222199999999992,"durationTicks":48,"midi":67,"name":"G4","ticks":768,"time":3.555552,"velocity":0.7874015748031497},{"duration":0.22222199999999992,"durationTicks":48,"midi":74,"name":"D5","ticks":816,"time":3.777774,"velocity":0.7874015748031497},{"duration":0.22222200000000036,"durationTicks":48,"midi":67,"name":"G4","ticks":912,"time":4.222218,"velocity":0.7874015748031497},{"duration":0.22222199999999948,"durationTicks":48,"midi":73,"name":"C#5","ticks":960,"time":4.44444,"velocity":0.7874015748031497},{"duration":0.22222200000000036,"durationTicks":48,"midi":74,"name":"D5","ticks":1008,"time":4.666662,"velocity":0.7874015748031497},{"duration":0.22222200000000036,"durationTicks":48,"midi":73,"name":"C#5","ticks":1056,"time":4.888884,"velocity":0.7874015748031497},{"duration":0.22222199999999948,"durationTicks":48,"midi":70,"name":"A#4","ticks":1104,"time":5.111106,"velocity":0.7874015748031497},{"duration":0.22222200000000036,"durationTicks":48,"midi":67,"name":"G4","ticks":1152,"time":5.333328,"velocity":0.7874015748031497},{"duration":0.22222199999999948,"durationTicks":48,"midi":74,"name":"D5","ticks":1200,"time":5.55555,"velocity":0.7874015748031497},{"duration":0.22222200000000036,"durationTicks":48,"midi":67,"name":"G4","ticks":1296,"time":5.999994,"velocity":0.7874015748031497},{"duration":0.22222199999999948,"durationTicks":48,"midi":73,"name":"C#5","ticks":1344,"time":6.222216,"velocity":0.7874015748031497},{"duration":0.22222200000000036,"durationTicks":48,"midi":74,"name":"D5","ticks":1392,"time":6.444438,"velocity":0.7874015748031497},{"duration":0.22222199999999948,"durationTicks":48,"midi":73,"name":"C#5","ticks":1440,"time":6.66666,"velocity":0.7874015748031497},{"duration":0.22222200000000036,"durationTicks":48,"midi":70,"name":"A#4","ticks":1488,"time":6.888882,"velocity":0.7874015748031497},{"duration":0.22222200000000036,"durationTicks":48,"midi":72,"name":"C5","ticks":1536,"time":7.111104,"velocity":0.7874015748031497},{"duration":0.22222199999999948,"durationTicks":48,"midi":79,"name":"G5","ticks":1584,"time":7.3333260000000005,"velocity":0.7874015748031497},{"duration":0.22222199999999948,"durationTicks":48,"midi":72,"name":"C5","ticks":1680,"time":7.77777,"velocity":0.7874015748031497},{"duration":0.22222199999999948,"durationTicks":48,"midi":78,"name":"F#5","ticks":1728,"time":7.999992,"velocity":0.7874015748031497},{"duration":0.22222200000000036,"durationTicks":48,"midi":79,"name":"G5","ticks":1776,"time":8.222214,"velocity":0.7874015748031497},{"duration":0.22222200000000036,"durationTicks":48,"midi":78,"name":"F#5","ticks":1824,"time":8.444436,"velocity":0.7874015748031497},{"duration":0.22222200000000036,"durationTicks":48,"midi":75,"name":"D#5","ticks":1872,"time":8.666658,"velocity":0.7874015748031497},{"duration":0.22222200000000036,"durationTicks":48,"midi":72,"name":"C5","ticks":1920,"time":8.88888,"velocity":0.7874015748031497},{"duration":0.2222219999999986,"durationTicks":48,"midi":79,"name":"G5","ticks":1968,"time":9.111102,"velocity":0.7874015748031497},{"duration":0.22222200000000036,"durationTicks":48,"midi":72,"name":"C5","ticks":2064,"time":9.555546,"velocity":0.7874015748031497},{"duration":0.22222200000000036,"durationTicks":48,"midi":78,"name":"F#5","ticks":2112,"time":9.777768,"velocity":0.7874015748031497},{"duration":0.22222200000000036,"durationTicks":48,"midi":79,"name":"G5","ticks":2160,"time":9.99999,"velocity":0.7874015748031497},{"duration":0.2222219999999986,"durationTicks":48,"midi":78,"name":"F#5","ticks":2208,"time":10.222212,"velocity":0.7874015748031497},{"duration":0.22222200000000036,"durationTicks":48,"midi":75,"name":"D#5","ticks":2256,"time":10.444434,"velocity":0.7874015748031497},{"duration":0.22222200000000036,"durationTicks":48,"midi":74,"name":"D5","ticks":2304,"time":10.666656,"velocity":0.7874015748031497},{"duration":0.22222200000000036,"durationTicks":48,"midi":81,"name":"A5","ticks":2352,"time":10.888878,"velocity":0.7874015748031497},{"duration":0.2222219999999986,"durationTicks":48,"midi":74,"name":"D5","ticks":2448,"time":11.333322,"velocity":0.7874015748031497},{"duration":0.22222200000000036,"durationTicks":48,"midi":78,"name":"F#5","ticks":2496,"time":11.555544,"velocity":0.7874015748031497},{"duration":0.22222200000000036,"durationTicks":48,"midi":74,"name":"D5","ticks":2544,"time":11.777766,"velocity":0.7874015748031497},{"duration":0.16666649999999983,"durationTicks":36,"midi":72,"name":"C5","ticks":2640,"time":12.22221,"velocity":0.7874015748031497},{"duration":0.16666649999999983,"durationTicks":36,"midi":72,"name":"C5","ticks":2688,"time":12.444432,"velocity":0.7874015748031497}]},{"channel":0,"controlChanges":{"6":[{"number":6,"ticks":0,"time":0,"value":0.09448818897637795}],"7":[{"number":7,"ticks":0,"time":0,"value":0.7874015748031497},{"number":7,"ticks":0,"time":0,"value":0.7874015748031497}],"10":[{"number":10,"ticks":0,"time":0,"value":0.5039370078740157},{"number":10,"ticks":0,"time":0,"value":0.5039370078740157}],"100":[{"number":100,"ticks":0,"time":0,"value":0}],"101":[{"number":101,"ticks":0,"time":0,"value":0}]},"pitchBends":[{"ticks":0,"time":0,"value":0},{"ticks":0,"time":0,"value":0}],"instrument":{"family":"piano","number":0,"name":"acoustic grand piano"},"name":"Bass","notes":[],"endOfTrackTicks":3457},{"channel":1,"controlChanges":{"6":[{"number":6,"ticks":0,"time":0,"value":0.09448818897637795},{"number":6,"ticks":3456,"time":15.999984,"value":0.09448818897637795},{"number":6,"ticks":3457,"time":16.004613624999998,"value":0.09448818897637795},{"number":6,"ticks":3457,"time":16.004613624999998,"value":0.09448818897637795}],"7":[{"number":7,"ticks":0,"time":0,"value":0.7874015748031497},{"number":7,"ticks":3456,"time":15.999984,"value":0.7874015748031497},{"number":7,"ticks":3457,"time":16.004613624999998,"value":0.7874015748031497},{"number":7,"ticks":3457,"time":16.004613624999998,"value":0.7874015748031497}],"10":[{"number":10,"ticks":0,"time":0,"value":0.5039370078740157},{"number":10,"ticks":3456,"time":15.999984,"value":0.5039370078740157},{"number":10,"ticks":3457,"time":16.004613624999998,"value":0.5039370078740157},{"number":10,"ticks":3457,"time":16.004613624999998,"value":0.5039370078740157}],"100":[{"number":100,"ticks":0,"time":0,"value":0},{"number":100,"ticks":3456,"time":15.999984,"value":0},{"number":100,"ticks":3457,"time":16.004613624999998,"value":0},{"number":100,"ticks":3457,"time":16.004613624999998,"value":0}],"101":[{"number":101,"ticks":0,"time":0,"value":0},{"number":101,"ticks":3456,"time":15.999984,"value":0},{"number":101,"ticks":3457,"time":16.004613624999998,"value":0},{"number":101,"ticks":3457,"time":16.004613624999998,"value":0}]},"pitchBends":[{"ticks":0,"time":0,"value":0},{"ticks":3456,"time":15.999984,"value":0},{"ticks":3457,"time":16.004613624999998,"value":0},{"ticks":3457,"time":16.004613624999998,"value":0}],"instrument":{"family":"synth lead","number":87,"name":"lead 8 (bass + lead)"},"name":"","notes":[{"duration":0.1666665,"durationTicks":36,"midi":43,"name":"G2","ticks":0,"time":0,"velocity":0.7874015748031497},{"duration":0.22222200000000003,"durationTicks":48,"midi":43,"name":"G2","ticks":144,"time":0.666666,"velocity":0.7874015748031497},{"duration":0.22222200000000003,"durationTicks":48,"midi":46,"name":"A#2","ticks":192,"time":0.888888,"velocity":0.7874015748031497},{"duration":0.22222199999999992,"durationTicks":48,"midi":43,"name":"G2","ticks":240,"time":1.11111,"velocity":0.7874015748031497},{"duration":0.22222199999999992,"durationTicks":48,"midi":43,"name":"G2","ticks":336,"time":1.555554,"velocity":0.7874015748031497},{"duration":0.22222200000000014,"durationTicks":48,"midi":43,"name":"G2","ticks":432,"time":1.999998,"velocity":0.7874015748031497},{"duration":0.22222199999999992,"durationTicks":48,"midi":43,"name":"G2","ticks":528,"time":2.444442,"velocity":0.7874015748031497},{"duration":0.22222199999999992,"durationTicks":48,"midi":46,"name":"A#2","ticks":576,"time":2.666664,"velocity":0.7874015748031497},{"duration":0.22222200000000036,"durationTicks":48,"midi":43,"name":"G2","ticks":624,"time":2.888886,"velocity":0.7874015748031497},{"duration":0.44444399999999984,"durationTicks":96,"midi":41,"name":"F2","ticks":672,"time":3.111108,"velocity":0.7874015748031497},{"duration":0.16666649999999983,"durationTicks":36,"midi":43,"name":"G2","ticks":768,"time":3.555552,"velocity":0.7874015748031497},{"duration":0.22222200000000036,"durationTicks":48,"midi":43,"name":"G2","ticks":912,"time":4.222218,"velocity":0.7874015748031497},{"duration":0.22222199999999948,"durationTicks":48,"midi":46,"name":"A#2","ticks":960,"time":4.44444,"velocity":0.7874015748031497},{"duration":0.22222200000000036,"durationTicks":48,"midi":43,"name":"G2","ticks":1008,"time":4.666662,"velocity":0.7874015748031497},{"duration":0.22222199999999948,"durationTicks":48,"midi":43,"name":"G2","ticks":1104,"time":5.111106,"velocity":0.7874015748031497},{"duration":0.22222199999999948,"durationTicks":48,"midi":43,"name":"G2","ticks":1200,"time":5.55555,"velocity":0.7874015748031497},{"duration":0.22222200000000036,"durationTicks":48,"midi":43,"name":"G2","ticks":1296,"time":5.999994,"velocity":0.7874015748031497},{"duration":0.22222199999999948,"durationTicks":48,"midi":46,"name":"A#2","ticks":1344,"time":6.222216,"velocity":0.7874015748031497},{"duration":0.22222200000000036,"durationTicks":48,"midi":43,"name":"G2","ticks":1392,"time":6.444438,"velocity":0.7874015748031497},{"duration":0.44444399999999984,"durationTicks":96,"midi":41,"name":"F2","ticks":1440,"time":6.66666,"velocity":0.7874015748031497},{"duration":0.16666649999999983,"durationTicks":36,"midi":48,"name":"C3","ticks":1536,"time":7.111104,"velocity":0.7874015748031497},{"duration":0.22222199999999948,"durationTicks":48,"midi":48,"name":"C3","ticks":1680,"time":7.77777,"velocity":0.7874015748031497},{"duration":0.22222199999999948,"durationTicks":48,"midi":51,"name":"D#3","ticks":1728,"time":7.999992,"velocity":0.7874015748031497},{"duration":0.22222200000000036,"durationTicks":48,"midi":48,"name":"C3","ticks":1776,"time":8.222214,"velocity":0.7874015748031497},{"duration":0.22222200000000036,"durationTicks":48,"midi":48,"name":"C3","ticks":1872,"time":8.666658,"velocity":0.7874015748031497},{"duration":0.2222219999999986,"durationTicks":48,"midi":48,"name":"C3","ticks":1968,"time":9.111102,"velocity":0.7874015748031497},{"duration":0.22222200000000036,"durationTicks":48,"midi":48,"name":"C3","ticks":2064,"time":9.555546,"velocity":0.7874015748031497},{"duration":0.22222200000000036,"durationTicks":48,"midi":51,"name":"D#3","ticks":2112,"time":9.777768,"velocity":0.7874015748031497},{"duration":0.22222200000000036,"durationTicks":48,"midi":48,"name":"C3","ticks":2160,"time":9.99999,"velocity":0.7874015748031497},{"duration":0.44444399999999895,"durationTicks":96,"midi":55,"name":"G3","ticks":2208,"time":10.222212,"velocity":0.7874015748031497},{"duration":0.16666649999999983,"durationTicks":36,"midi":50,"name":"D3","ticks":2304,"time":10.666656,"velocity":0.7874015748031497},{"duration":0.2222219999999986,"durationTicks":48,"midi":50,"name":"D3","ticks":2448,"time":11.333322,"velocity":0.7874015748031497},{"duration":0.22222200000000036,"durationTicks":48,"midi":54,"name":"F#3","ticks":2496,"time":11.555544,"velocity":0.7874015748031497},{"duration":0.22222200000000036,"durationTicks":48,"midi":50,"name":"D3","ticks":2544,"time":11.777766,"velocity":0.7874015748031497},{"duration":0.22222200000000036,"durationTicks":48,"midi":38,"name":"D2","ticks":2640,"time":12.22221,"velocity":0.7874015748031497},{"duration":0.22222200000000036,"durationTicks":48,"midi":38,"name":"D2","ticks":2736,"time":12.666654,"velocity":0.7874015748031497},{"duration":0.22222200000000036,"durationTicks":48,"midi":38,"name":"D2","ticks":2832,"time":13.111098,"velocity":0.7874015748031497}]},{"channel":9,"controlChanges":{"6":[{"number":6,"ticks":0,"time":0,"value":0.09448818897637795},{"number":6,"ticks":0,"time":0,"value":0.09448818897637795},{"number":6,"ticks":3456,"time":15.999984,"value":0.09448818897637795},{"number":6,"ticks":3457,"time":16.004613624999998,"value":0.09448818897637795},{"number":6,"ticks":3457,"time":16.004613624999998,"value":0.09448818897637795}],"7":[{"number":7,"ticks":0,"time":0,"value":0.7874015748031497},{"number":7,"ticks":0,"time":0,"value":0.7874015748031497},{"number":7,"ticks":0,"time":0,"value":0.7874015748031497},{"number":7,"ticks":3456,"time":15.999984,"value":0.7874015748031497},{"number":7,"ticks":3457,"time":16.004613624999998,"value":0.7874015748031497},{"number":7,"ticks":3457,"time":16.004613624999998,"value":0.7874015748031497}],"10":[{"number":10,"ticks":0,"time":0,"value":0.5039370078740157},{"number":10,"ticks":0,"time":0,"value":0.5039370078740157},{"number":10,"ticks":0,"time":0,"value":0.5039370078740157},{"number":10,"ticks":3456,"time":15.999984,"value":0.5039370078740157},{"number":10,"ticks":3457,"time":16.004613624999998,"value":0.5039370078740157},{"number":10,"ticks":3457,"time":16.004613624999998,"value":0.5039370078740157}],"100":[{"number":100,"ticks":0,"time":0,"value":0},{"number":100,"ticks":0,"time":0,"value":0},{"number":100,"ticks":3456,"time":15.999984,"value":0},{"number":100,"ticks":3457,"time":16.004613624999998,"value":0},{"number":100,"ticks":3457,"time":16.004613624999998,"value":0}],"101":[{"number":101,"ticks":0,"time":0,"value":0},{"number":101,"ticks":0,"time":0,"value":0},{"number":101,"ticks":3456,"time":15.999984,"value":0},{"number":101,"ticks":3457,"time":16.004613624999998,"value":0},{"number":101,"ticks":3457,"time":16.004613624999998,"value":0}]},"pitchBends":[{"ticks":0,"time":0,"value":0},{"ticks":0,"time":0,"value":0},{"ticks":0,"time":0,"value":0},{"ticks":3456,"time":15.999984,"value":0},{"ticks":3457,"time":16.004613624999998,"value":0},{"ticks":3457,"time":16.004613624999998,"value":0}],"instrument":{"family":"drums","number":0,"name":"standard kit"},"name":"Drums","notes":[{"duration":0.222222,"durationTicks":48,"midi":36,"name":"C2","ticks":0,"time":0,"velocity":0.7874015748031497},{"duration":0.11111099999999999,"durationTicks":24,"midi":42,"name":"F#2","ticks":48,"time":0.222222,"velocity":0.7874015748031497},{"duration":0.11111099999999996,"durationTicks":24,"midi":85,"name":"C#6","ticks":90,"time":0.41666625,"velocity":0.7874015748031497},{"duration":0.11111100000000002,"durationTicks":24,"midi":39,"name":"D#2","ticks":96,"time":0.444444,"velocity":0.7874015748031497},{"duration":0.11111100000000002,"durationTicks":24,"midi":37,"name":"C#2","ticks":96,"time":0.444444,"velocity":0.7874015748031497},{"duration":0.22222199999999998,"durationTicks":48,"midi":36,"name":"C2","ticks":96,"time":0.444444,"velocity":0.7874015748031497},{"duration":0.22222200000000003,"durationTicks":48,"midi":36,"name":"C2","ticks":192,"time":0.888888,"velocity":0.7874015748031497},{"duration":0.11111099999999996,"durationTicks":24,"midi":42,"name":"F#2","ticks":240,"time":1.11111,"velocity":0.7874015748031497},{"duration":0.11111100000000018,"durationTicks":24,"midi":85,"name":"C#6","ticks":282,"time":1.30555425,"velocity":0.7874015748031497},{"duration":0.11111099999999996,"durationTicks":24,"midi":39,"name":"D#2","ticks":288,"time":1.333332,"velocity":0.7874015748031497},{"duration":0.11111099999999996,"durationTicks":24,"midi":37,"name":"C#2","ticks":288,"time":1.333332,"velocity":0.7874015748031497},{"duration":0.22222200000000014,"durationTicks":48,"midi":36,"name":"C2","ticks":288,"time":1.333332,"velocity":0.7874015748031497},{"duration":0.22222199999999992,"durationTicks":48,"midi":36,"name":"C2","ticks":384,"time":1.777776,"velocity":0.7874015748031497},{"duration":0.11111099999999996,"durationTicks":24,"midi":42,"name":"F#2","ticks":432,"time":1.999998,"velocity":0.7874015748031497},{"duration":0.11111099999999974,"durationTicks":24,"midi":39,"name":"D#2","ticks":480,"time":2.22222,"velocity":0.7874015748031497},{"duration":0.11111099999999974,"durationTicks":24,"midi":37,"name":"C#2","ticks":480,"time":2.22222,"velocity":0.7874015748031497},{"duration":0.22222199999999992,"durationTicks":48,"midi":36,"name":"C2","ticks":480,"time":2.22222,"velocity":0.7874015748031497},{"duration":0.22222199999999992,"durationTicks":48,"midi":36,"name":"C2","ticks":576,"time":2.666664,"velocity":0.7874015748031497},{"duration":0.11111100000000018,"durationTicks":24,"midi":42,"name":"F#2","ticks":624,"time":2.888886,"velocity":0.7874015748031497},{"duration":0.11111099999999974,"durationTicks":24,"midi":39,"name":"D#2","ticks":672,"time":3.111108,"velocity":0.7874015748031497},{"duration":0.11111099999999974,"durationTicks":24,"midi":37,"name":"C#2","ticks":672,"time":3.111108,"velocity":0.7874015748031497},{"duration":0.22222199999999992,"durationTicks":48,"midi":36,"name":"C2","ticks":672,"time":3.111108,"velocity":0.7874015748031497},{"duration":0.22222199999999992,"durationTicks":48,"midi":36,"name":"C2","ticks":768,"time":3.555552,"velocity":0.7874015748031497},{"duration":0.11111100000000018,"durationTicks":24,"midi":42,"name":"F#2","ticks":816,"time":3.777774,"velocity":0.7874015748031497},{"duration":0.11111100000000018,"durationTicks":24,"midi":85,"name":"C#6","ticks":858,"time":3.97221825,"velocity":0.7874015748031497},{"duration":0.11111099999999974,"durationTicks":24,"midi":39,"name":"D#2","ticks":864,"time":3.999996,"velocity":0.7874015748031497},{"duration":0.11111099999999974,"durationTicks":24,"midi":37,"name":"C#2","ticks":864,"time":3.999996,"velocity":0.7874015748031497},{"duration":0.22222199999999992,"durationTicks":48,"midi":36,"name":"C2","ticks":864,"time":3.999996,"velocity":0.7874015748031497},{"duration":0.22222199999999948,"durationTicks":48,"midi":36,"name":"C2","ticks":960,"time":4.44444,"velocity":0.7874015748031497},{"duration":0.11111100000000018,"durationTicks":24,"midi":42,"name":"F#2","ticks":1008,"time":4.666662,"velocity":0.7874015748031497},{"duration":0.11111100000000018,"durationTicks":24,"midi":85,"name":"C#6","ticks":1050,"time":4.86110625,"velocity":0.7874015748031497},{"duration":0.11111100000000018,"durationTicks":24,"midi":39,"name":"D#2","ticks":1056,"time":4.888884,"velocity":0.7874015748031497},{"duration":0.11111100000000018,"durationTicks":24,"midi":37,"name":"C#2","ticks":1056,"time":4.888884,"velocity":0.7874015748031497},{"duration":0.22222200000000036,"durationTicks":48,"midi":36,"name":"C2","ticks":1056,"time":4.888884,"velocity":0.7874015748031497},{"duration":0.22222200000000036,"durationTicks":48,"midi":36,"name":"C2","ticks":1152,"time":5.333328,"velocity":0.7874015748031497},{"duration":0.11111100000000018,"durationTicks":24,"midi":42,"name":"F#2","ticks":1200,"time":5.55555,"velocity":0.7874015748031497},{"duration":0.11111100000000018,"durationTicks":24,"midi":39,"name":"D#2","ticks":1248,"time":5.777772,"velocity":0.7874015748031497},{"duration":0.11111100000000018,"durationTicks":24,"midi":37,"name":"C#2","ticks":1248,"time":5.777772,"velocity":0.7874015748031497},{"duration":0.22222200000000036,"durationTicks":48,"midi":36,"name":"C2","ticks":1248,"time":5.777772,"velocity":0.7874015748031497},{"duration":0.22222199999999948,"durationTicks":48,"midi":36,"name":"C2","ticks":1344,"time":6.222216,"velocity":0.7874015748031497},{"duration":0.11111100000000018,"durationTicks":24,"midi":42,"name":"F#2","ticks":1392,"time":6.444438,"velocity":0.7874015748031497},{"duration":0.11111100000000018,"durationTicks":24,"midi":39,"name":"D#2","ticks":1440,"time":6.66666,"velocity":0.7874015748031497},{"duration":0.11111100000000018,"durationTicks":24,"midi":37,"name":"C#2","ticks":1440,"time":6.66666,"velocity":0.7874015748031497},{"duration":0.22222199999999948,"durationTicks":48,"midi":36,"name":"C2","ticks":1440,"time":6.66666,"velocity":0.7874015748031497},{"duration":0.22222200000000036,"durationTicks":48,"midi":36,"name":"C2","ticks":1536,"time":7.111104,"velocity":0.7874015748031497},{"duration":0.1111109999999993,"durationTicks":24,"midi":42,"name":"F#2","ticks":1584,"time":7.3333260000000005,"velocity":0.7874015748031497},{"duration":0.11111100000000018,"durationTicks":24,"midi":85,"name":"C#6","ticks":1626,"time":7.52777025,"velocity":0.7874015748031497},{"duration":0.11111100000000018,"durationTicks":24,"midi":39,"name":"D#2","ticks":1632,"time":7.555548,"velocity":0.7874015748031497},{"duration":0.11111100000000018,"durationTicks":24,"midi":37,"name":"C#2","ticks":1632,"time":7.555548,"velocity":0.7874015748031497},{"duration":0.22222200000000036,"durationTicks":48,"midi":36,"name":"C2","ticks":1632,"time":7.555548,"velocity":0.7874015748031497},{"duration":0.22222199999999948,"durationTicks":48,"midi":36,"name":"C2","ticks":1728,"time":7.999992,"velocity":0.7874015748031497},{"duration":0.11111100000000107,"durationTicks":24,"midi":42,"name":"F#2","ticks":1776,"time":8.222214,"velocity":0.7874015748031497},{"duration":0.11111100000000107,"durationTicks":24,"midi":85,"name":"C#6","ticks":1818,"time":8.41665825,"velocity":0.7874015748031497},{"duration":0.11111100000000107,"durationTicks":24,"midi":39,"name":"D#2","ticks":1824,"time":8.444436,"velocity":0.7874015748031497},{"duration":0.11111100000000107,"durationTicks":24,"midi":37,"name":"C#2","ticks":1824,"time":8.444436,"velocity":0.7874015748031497},{"duration":0.22222200000000036,"durationTicks":48,"midi":36,"name":"C2","ticks":1824,"time":8.444436,"velocity":0.7874015748031497},{"duration":0.22222200000000036,"durationTicks":48,"midi":36,"name":"C2","ticks":1920,"time":8.88888,"velocity":0.7874015748031497},{"duration":0.1111109999999993,"durationTicks":24,"midi":42,"name":"F#2","ticks":1968,"time":9.111102,"velocity":0.7874015748031497},{"duration":0.11111100000000107,"durationTicks":24,"midi":39,"name":"D#2","ticks":2016,"time":9.333324,"velocity":0.7874015748031497},{"duration":0.11111100000000107,"durationTicks":24,"midi":37,"name":"C#2","ticks":2016,"time":9.333324,"velocity":0.7874015748031497},{"duration":0.22222200000000036,"durationTicks":48,"midi":36,"name":"C2","ticks":2016,"time":9.333324,"velocity":0.7874015748031497},{"duration":0.22222200000000036,"durationTicks":48,"midi":36,"name":"C2","ticks":2112,"time":9.777768,"velocity":0.7874015748031497},{"duration":0.1111109999999993,"durationTicks":24,"midi":42,"name":"F#2","ticks":2160,"time":9.99999,"velocity":0.7874015748031497},{"duration":0.1111109999999993,"durationTicks":24,"midi":39,"name":"D#2","ticks":2208,"time":10.222212,"velocity":0.7874015748031497},{"duration":0.1111109999999993,"durationTicks":24,"midi":37,"name":"C#2","ticks":2208,"time":10.222212,"velocity":0.7874015748031497},{"duration":0.2222219999999986,"durationTicks":48,"midi":36,"name":"C2","ticks":2208,"time":10.222212,"velocity":0.7874015748031497},{"duration":0.22222200000000036,"durationTicks":48,"midi":36,"name":"C2","ticks":2304,"time":10.666656,"velocity":0.7874015748031497},{"duration":0.1111109999999993,"durationTicks":24,"midi":42,"name":"F#2","ticks":2352,"time":10.888878,"velocity":0.7874015748031497},{"duration":0.1111109999999993,"durationTicks":24,"midi":85,"name":"C#6","ticks":2394,"time":11.08332225,"velocity":0.7874015748031497},{"duration":0.1111109999999993,"durationTicks":24,"midi":39,"name":"D#2","ticks":2400,"time":11.1111,"velocity":0.7874015748031497},{"duration":0.1111109999999993,"durationTicks":24,"midi":37,"name":"C#2","ticks":2400,"time":11.1111,"velocity":0.7874015748031497},{"duration":0.22222200000000036,"durationTicks":48,"midi":36,"name":"C2","ticks":2400,"time":11.1111,"velocity":0.7874015748031497},{"duration":0.22222200000000036,"durationTicks":48,"midi":36,"name":"C2","ticks":2496,"time":11.555544,"velocity":0.7874015748031497},{"duration":0.11111100000000107,"durationTicks":24,"midi":42,"name":"F#2","ticks":2544,"time":11.777766,"velocity":0.7874015748031497},{"duration":0.11111100000000107,"durationTicks":24,"midi":85,"name":"C#6","ticks":2586,"time":11.97221025,"velocity":0.7874015748031497},{"duration":0.1111109999999993,"durationTicks":24,"midi":39,"name":"D#2","ticks":2592,"time":11.999988,"velocity":0.7874015748031497},{"duration":0.1111109999999993,"durationTicks":24,"midi":37,"name":"C#2","ticks":2592,"time":11.999988,"velocity":0.7874015748031497},{"duration":0.22222200000000036,"durationTicks":48,"midi":36,"name":"C2","ticks":2592,"time":11.999988,"velocity":0.7874015748031497},{"duration":0.2222219999999986,"durationTicks":48,"midi":36,"name":"C2","ticks":2688,"time":12.444432,"velocity":0.7874015748031497},{"duration":0.11111100000000107,"durationTicks":24,"midi":42,"name":"F#2","ticks":2736,"time":12.666654,"velocity":0.7874015748031497},{"duration":0.11111100000000107,"durationTicks":24,"midi":39,"name":"D#2","ticks":2784,"time":12.888876,"velocity":0.7874015748031497},{"duration":0.11111100000000107,"durationTicks":24,"midi":37,"name":"C#2","ticks":2784,"time":12.888876,"velocity":0.7874015748031497},{"duration":0.22222200000000036,"durationTicks":48,"midi":36,"name":"C2","ticks":2784,"time":12.888876,"velocity":0.7874015748031497},{"duration":0.22222200000000036,"durationTicks":48,"midi":36,"name":"C2","ticks":2880,"time":13.33332,"velocity":0.7874015748031497},{"duration":0.1111109999999993,"durationTicks":24,"midi":42,"name":"F#2","ticks":2928,"time":13.555542,"velocity":0.7874015748031497},{"duration":0.22222200000000036,"durationTicks":48,"midi":36,"name":"C2","ticks":2976,"time":13.777764,"velocity":0.7874015748031497},{"duration":0.11111100000000107,"durationTicks":24,"midi":39,"name":"D#2","ticks":2976,"time":13.777764,"velocity":0.7874015748031497},{"duration":0.11111100000000107,"durationTicks":24,"midi":37,"name":"C#2","ticks":2976,"time":13.777764,"velocity":0.7874015748031497},{"duration":0.22222200000000036,"durationTicks":48,"midi":49,"name":"C#3","ticks":3072,"time":14.222208,"velocity":0.7874015748031497},{"duration":0.22222200000000036,"durationTicks":48,"midi":36,"name":"C2","ticks":3072,"time":14.222208,"velocity":0.7874015748031497}],"endOfTrackTicks":3457},{"channel":0,"controlChanges":{"6":[{"number":6,"ticks":0,"time":0,"value":0.09448818897637795},{"number":6,"ticks":0,"time":0,"value":0.09448818897637795},{"number":6,"ticks":3456,"time":15.999984,"value":0.09448818897637795},{"number":6,"ticks":3457,"time":16.004613624999998,"value":0.09448818897637795},{"number":6,"ticks":3457,"time":16.004613624999998,"value":0.09448818897637795}],"7":[{"number":7,"ticks":0,"time":0,"value":0.7874015748031497},{"number":7,"ticks":0,"time":0,"value":0.7874015748031497},{"number":7,"ticks":0,"time":0,"value":0.7874015748031497},{"number":7,"ticks":3456,"time":15.999984,"value":0.7874015748031497},{"number":7,"ticks":3457,"time":16.004613624999998,"value":0.7874015748031497},{"number":7,"ticks":3457,"time":16.004613624999998,"value":0.7874015748031497}],"10":[{"number":10,"ticks":0,"time":0,"value":0.5039370078740157},{"number":10,"ticks":0,"time":0,"value":0.5039370078740157},{"number":10,"ticks":0,"time":0,"value":0.5039370078740157},{"number":10,"ticks":3456,"time":15.999984,"value":0.5039370078740157},{"number":10,"ticks":3457,"time":16.004613624999998,"value":0.5039370078740157},{"number":10,"ticks":3457,"time":16.004613624999998,"value":0.5039370078740157}],"100":[{"number":100,"ticks":0,"time":0,"value":0},{"number":100,"ticks":0,"time":0,"value":0},{"number":100,"ticks":3456,"time":15.999984,"value":0},{"number":100,"ticks":3457,"time":16.004613624999998,"value":0},{"number":100,"ticks":3457,"time":16.004613624999998,"value":0}],"101":[{"number":101,"ticks":0,"time":0,"value":0},{"number":101,"ticks":0,"time":0,"value":0},{"number":101,"ticks":3456,"time":15.999984,"value":0},{"number":101,"ticks":3457,"time":16.004613624999998,"value":0},{"number":101,"ticks":3457,"time":16.004613624999998,"value":0}]},"pitchBends":[{"ticks":0,"time":0,"value":0},{"ticks":0,"time":0,"value":0},{"ticks":0,"time":0,"value":0},{"ticks":3456,"time":15.999984,"value":0},{"ticks":3457,"time":16.004613624999998,"value":0},{"ticks":3457,"time":16.004613624999998,"value":0}],"instrument":{"family":"piano","number":0,"name":"acoustic grand piano"},"name":"Billie Eilish - Bad Guy","notes":[],"endOfTrackTicks":3457},{"channel":0,"controlChanges":{"6":[{"number":6,"ticks":0,"time":0,"value":0.09448818897637795},{"number":6,"ticks":0,"time":0,"value":0.09448818897637795},{"number":6,"ticks":3456,"time":15.999984,"value":0.09448818897637795},{"number":6,"ticks":3457,"time":16.004613624999998,"value":0.09448818897637795},{"number":6,"ticks":3457,"time":16.004613624999998,"value":0.09448818897637795}],"7":[{"number":7,"ticks":0,"time":0,"value":0.7874015748031497},{"number":7,"ticks":0,"time":0,"value":0.7874015748031497},{"number":7,"ticks":0,"time":0,"value":0.7874015748031497},{"number":7,"ticks":3456,"time":15.999984,"value":0.7874015748031497},{"number":7,"ticks":3457,"time":16.004613624999998,"value":0.7874015748031497},{"number":7,"ticks":3457,"time":16.004613624999998,"value":0.7874015748031497}],"10":[{"number":10,"ticks":0,"time":0,"value":0.5039370078740157},{"number":10,"ticks":0,"time":0,"value":0.5039370078740157},{"number":10,"ticks":0,"time":0,"value":0.5039370078740157},{"number":10,"ticks":3456,"time":15.999984,"value":0.5039370078740157},{"number":10,"ticks":3457,"time":16.004613624999998,"value":0.5039370078740157},{"number":10,"ticks":3457,"time":16.004613624999998,"value":0.5039370078740157}],"100":[{"number":100,"ticks":0,"time":0,"value":0},{"number":100,"ticks":0,"time":0,"value":0},{"number":100,"ticks":3456,"time":15.999984,"value":0},{"number":100,"ticks":3457,"time":16.004613624999998,"value":0},{"number":100,"ticks":3457,"time":16.004613624999998,"value":0}],"101":[{"number":101,"ticks":0,"time":0,"value":0},{"number":101,"ticks":0,"time":0,"value":0},{"number":101,"ticks":3456,"time":15.999984,"value":0},{"number":101,"ticks":3457,"time":16.004613624999998,"value":0},{"number":101,"ticks":3457,"time":16.004613624999998,"value":0}]},"pitchBends":[{"ticks":0,"time":0,"value":0},{"ticks":0,"time":0,"value":0},{"ticks":0,"time":0,"value":0},{"ticks":3456,"time":15.999984,"value":0},{"ticks":3457,"time":16.004613624999998,"value":0},{"ticks":3457,"time":16.004613624999998,"value":0}],"instrument":{"family":"piano","number":0,"name":"acoustic grand piano"},"name":"Carlo Prato","notes":[],"endOfTrackTicks":3457},{"channel":0,"controlChanges":{"6":[{"number":6,"ticks":0,"time":0,"value":0.09448818897637795},{"number":6,"ticks":0,"time":0,"value":0.09448818897637795},{"number":6,"ticks":3456,"time":15.999984,"value":0.09448818897637795},{"number":6,"ticks":3457,"time":16.004613624999998,"value":0.09448818897637795},{"number":6,"ticks":3457,"time":16.004613624999998,"value":0.09448818897637795}],"7":[{"number":7,"ticks":0,"time":0,"value":0.7874015748031497},{"number":7,"ticks":0,"time":0,"value":0.7874015748031497},{"number":7,"ticks":0,"time":0,"value":0.7874015748031497},{"number":7,"ticks":3456,"time":15.999984,"value":0.7874015748031497},{"number":7,"ticks":3457,"time":16.004613624999998,"value":0.7874015748031497},{"number":7,"ticks":3457,"time":16.004613624999998,"value":0.7874015748031497}],"10":[{"number":10,"ticks":0,"time":0,"value":0.5039370078740157},{"number":10,"ticks":0,"time":0,"value":0.5039370078740157},{"number":10,"ticks":0,"time":0,"value":0.5039370078740157},{"number":10,"ticks":3456,"time":15.999984,"value":0.5039370078740157},{"number":10,"ticks":3457,"time":16.004613624999998,"value":0.5039370078740157},{"number":10,"ticks":3457,"time":16.004613624999998,"value":0.5039370078740157}],"100":[{"number":100,"ticks":0,"time":0,"value":0},{"number":100,"ticks":0,"time":0,"value":0},{"number":100,"ticks":3456,"time":15.999984,"value":0},{"number":100,"ticks":3457,"time":16.004613624999998,"value":0},{"number":100,"ticks":3457,"time":16.004613624999998,"value":0}],"101":[{"number":101,"ticks":0,"time":0,"value":0},{"number":101,"ticks":0,"time":0,"value":0},{"number":101,"ticks":3456,"time":15.999984,"value":0},{"number":101,"ticks":3457,"time":16.004613624999998,"value":0},{"number":101,"ticks":3457,"time":16.004613624999998,"value":0}]},"pitchBends":[{"ticks":0,"time":0,"value":0},{"ticks":0,"time":0,"value":0},{"ticks":0,"time":0,"value":0},{"ticks":3456,"time":15.999984,"value":0},{"ticks":3457,"time":16.004613624999998,"value":0},{"ticks":3457,"time":16.004613624999998,"value":0}],"instrument":{"family":"piano","number":0,"name":"acoustic grand piano"},"name":"cprato.com","notes":[],"endOfTrackTicks":3457}]}